<mxfile host="app.diagrams.net" modified="2023-12-20T09:26:32.311Z" agent="Mozilla/5.0 (Windows NT 10.0; Win64; x64) AppleWebKit/537.36 (KHTML, like Gecko) Chrome/118.0.0.0 Safari/537.36 OPR/104.0.0.0" version="22.1.11" etag="njyOQrEvFOXtytpVxIKQ" type="github">
  <diagram name="Page-1" id="QAZj8mpk5d0KrgfhuQZe">
    <mxGraphModel>
      <root>
        <mxCell id="0" />
        <mxCell id="1" parent="0" />
      </root>
    </mxGraphModel>
  </diagram>
</mxfile>
